<svg xmlns="http://www.w3.org/2000/svg" viewBox="0 0 32 32">
  <defs>
    <linearGradient id="bg" x1="0%" y1="0%" x2="100%" y2="100%">
      <stop offset="0%" style="stop-color:#FF6B6B"/>
      <stop offset="100%" style="stop-color:#F5576C"/>
    </linearGradient>
  </defs>
  <!-- Background circle -->
  <circle cx="16" cy="16" r="15" fill="url(#bg)" stroke="#fff" stroke-width="1"/>
  <!-- Hamster face -->
  <ellipse cx="16" cy="17" rx="10" ry="9" fill="#F5D0A9"/>
  <!-- Ears -->
  <circle cx="9" cy="10" r="4" fill="#E8B89D"/>
  <circle cx="23" cy="10" r="4" fill="#E8B89D"/>
  <circle cx="9" cy="10" r="2.5" fill="#FFB6B6"/>
  <circle cx="23" cy="10" r="2.5" fill="#FFB6B6"/>
  <!-- Eyes -->
  <circle cx="12" cy="15" r="2.5" fill="#1A1A2E"/>
  <circle cx="20" cy="15" r="2.5" fill="#1A1A2E"/>
  <circle cx="12.5" cy="14.5" r="0.8" fill="#fff"/>
  <circle cx="20.5" cy="14.5" r="0.8" fill="#fff"/>
  <!-- Nose -->
  <ellipse cx="16" cy="19" rx="1.5" ry="1" fill="#FF6B6B"/>
  <!-- Mouth -->
  <path d="M14 21 Q16 23 18 21" stroke="#1A1A2E" stroke-width="0.8" fill="none"/>
  <!-- Cheeks -->
  <circle cx="9" cy="18" r="2" fill="#FFB6B6" opacity="0.6"/>
  <circle cx="23" cy="18" r="2" fill="#FFB6B6" opacity="0.6"/>
  <!-- Kung fu headband -->
  <rect x="6" y="11" width="20" height="2.5" fill="#FF6B6B" rx="1"/>
  <path d="M25 11.5 L29 8 L29 14 L25 13" fill="#FF6B6B"/>
</svg>
